<?xml version="1.0" encoding="utf-8"?>
<!-- Generator: Adobe Illustrator 22.1.0, SVG Export Plug-In . SVG Version: 6.00 Build 0)  -->
<svg version="1.1" id="Layer_1" xmlns="http://www.w3.org/2000/svg" xmlns:xlink="http://www.w3.org/1999/xlink" x="0px" y="0px"
	 viewBox="0 0 702 845" style="enable-background:new 0 0 702 845;" xml:space="preserve">
<style type="text/css">
	.st0{fill:#FFFFFF;}
	.st1{fill:#FFB42A;}
	.st2{fill:#F2F2F2;}
	.st3{fill:#42210B;}
	.st4{stroke:#231F20;stroke-linecap:round;stroke-miterlimit:10;}
	.st5{fill:#FFFFFF;stroke:#231F20;stroke-linecap:round;stroke-miterlimit:10;}
	.st6{fill:#E6E7E8;}
	.st7{fill:#E6E7E8;stroke:#231F20;stroke-linecap:round;stroke-miterlimit:10;}
	.st8{fill:none;stroke:#231F20;stroke-width:4;stroke-linecap:round;stroke-miterlimit:10;}
</style>
<g>
	<path class="st0" d="M373.9,348.5h-73.8c-5.6,0-10.1-4.5-10.1-10.1v-17.9h94v17.9C384,344,379.5,348.5,373.9,348.5z"/>
</g>
<g>
	<path class="st0" d="M165.3,174.2L36.8,120.1c-8.4-3.5-12.3-13.2-8.8-21.5l12.6-29.9c3.5-8.4,13.2-12.3,21.5-8.8L190.7,114
		c8.4,3.5,12.3,13.2,8.8,21.5l-12.6,29.9C183.3,173.8,173.7,177.8,165.3,174.2z"/>
</g>
<g>
	<path class="st0" d="M680,226.5l-90.1-15.9c-20.9,0-37.9-20-37.9-44.7v0c0-23.1,15.9-41.8,35.4-41.8l92.6-17.6V226.5z"/>
</g>
<g>
	<path class="st1" d="M151.9,312.5c-26.4,0-47.9-21.5-47.9-47.9V109.4c0-26.4,21.5-47.9,47.9-47.9h370.3c26.4,0,47.9,21.5,47.9,47.9
		v155.3c0,26.4-21.5,47.9-47.9,47.9H151.9z"/>
	<path class="st2" d="M522.1,62.5c25.8,0,46.9,21,46.9,46.9v155.3c0,25.8-21,46.9-46.9,46.9H151.9c-25.8,0-46.9-21-46.9-46.9V109.4
		c0-25.8,21-46.9,46.9-46.9H522.1 M522.1,60.5H151.9c-27,0-48.9,21.9-48.9,48.9v155.3c0,27,21.9,48.9,48.9,48.9h370.3
		c27,0,48.9-21.9,48.9-48.9V109.4C571,82.4,549.1,60.5,522.1,60.5L522.1,60.5z"/>
</g>
<g>
	<rect x="122.5" y="172" class="st3" width="428" height="109"/>
	<path d="M550,172.5v108H123v-108H550 M551,171.5H122v110h429V171.5L551,171.5z"/>
</g>
<g>
	<rect x="162.5" y="201" class="st0" width="64" height="51"/>
	<path d="M226,201.5v50h-63v-50H226 M227,200.5h-65v52h65V200.5L227,200.5z"/>
</g>
<g>
	<rect x="254.5" y="201" class="st0" width="64" height="51"/>
	<path d="M318,201.5v50h-63v-50H318 M319,200.5h-65v52h65V200.5L319,200.5z"/>
</g>
<g>
	<rect x="347.5" y="201" class="st0" width="64" height="51"/>
	<path d="M411,201.5v50h-63v-50H411 M412,200.5h-65v52h65V200.5L412,200.5z"/>
</g>
<g>
	<rect x="439.5" y="201" class="st0" width="64" height="51"/>
	<path d="M503,201.5v50h-63v-50H503 M504,200.5h-65v52h65V200.5L504,200.5z"/>
</g>
<g>
	<rect x="162.5" y="176" class="st0" width="11" height="6"/>
	<path d="M173,176.5v5h-10v-5H173 M174,175.5h-12v7h12V175.5L174,175.5z"/>
</g>
<g>
	<rect x="143.5" y="176" class="st0" width="11" height="6"/>
	<path d="M154,176.5v5h-10v-5H154 M155,175.5h-12v7h12V175.5L155,175.5z"/>
</g>
<g>
	<rect x="201.5" y="176" class="st0" width="11" height="6"/>
	<path d="M212,176.5v5h-10v-5H212 M213,175.5h-12v7h12V175.5L213,175.5z"/>
</g>
<g>
	<rect x="182.5" y="176" class="st0" width="11" height="6"/>
	<path d="M193,176.5v5h-10v-5H193 M194,175.5h-12v7h12V175.5L194,175.5z"/>
</g>
<g>
	<rect x="236.5" y="176" class="st0" width="11" height="6"/>
	<path d="M247,176.5v5h-10v-5H247 M248,175.5h-12v7h12V175.5L248,175.5z"/>
</g>
<g>
	<rect x="217.5" y="176" class="st0" width="11" height="6"/>
	<path d="M228,176.5v5h-10v-5H228 M229,175.5h-12v7h12V175.5L229,175.5z"/>
</g>
<g>
	<rect x="275.5" y="176" class="st0" width="11" height="6"/>
	<path d="M286,176.5v5h-10v-5H286 M287,175.5h-12v7h12V175.5L287,175.5z"/>
</g>
<g>
	<rect x="256.5" y="176" class="st0" width="11" height="6"/>
	<path d="M267,176.5v5h-10v-5H267 M268,175.5h-12v7h12V175.5L268,175.5z"/>
</g>
<g>
	<rect x="311.5" y="176" class="st0" width="11" height="6"/>
	<path d="M322,176.5v5h-10v-5H322 M323,175.5h-12v7h12V175.5L323,175.5z"/>
</g>
<g>
	<rect x="292.5" y="176" class="st0" width="11" height="6"/>
	<path d="M303,176.5v5h-10v-5H303 M304,175.5h-12v7h12V175.5L304,175.5z"/>
</g>
<g>
	<rect x="350.5" y="176" class="st0" width="11" height="6"/>
	<path d="M361,176.5v5h-10v-5H361 M362,175.5h-12v7h12V175.5L362,175.5z"/>
</g>
<g>
	<rect x="331.5" y="176" class="st0" width="11" height="6"/>
	<path d="M342,176.5v5h-10v-5H342 M343,175.5h-12v7h12V175.5L343,175.5z"/>
</g>
<g>
	<rect x="385.5" y="176" class="st0" width="11" height="6"/>
	<path d="M396,176.5v5h-10v-5H396 M397,175.5h-12v7h12V175.5L397,175.5z"/>
</g>
<g>
	<rect x="366.5" y="176" class="st0" width="11" height="6"/>
	<path d="M377,176.5v5h-10v-5H377 M378,175.5h-12v7h12V175.5L378,175.5z"/>
</g>
<g>
	<rect x="424.5" y="176" class="st0" width="11" height="6"/>
	<path d="M435,176.5v5h-10v-5H435 M436,175.5h-12v7h12V175.5L436,175.5z"/>
</g>
<g>
	<rect x="405.5" y="176" class="st0" width="11" height="6"/>
	<path d="M416,176.5v5h-10v-5H416 M417,175.5h-12v7h12V175.5L417,175.5z"/>
</g>
<g>
	<rect x="445.5" y="176" class="st0" width="11" height="6"/>
	<path d="M456,176.5v5h-10v-5H456 M457,175.5h-12v7h12V175.5L457,175.5z"/>
</g>
<g>
	<rect x="480.5" y="176" class="st0" width="11" height="6"/>
	<path d="M491,176.5v5h-10v-5H491 M492,175.5h-12v7h12V175.5L492,175.5z"/>
</g>
<g>
	<rect x="461.5" y="176" class="st0" width="11" height="6"/>
	<path d="M472,176.5v5h-10v-5H472 M473,175.5h-12v7h12V175.5L473,175.5z"/>
</g>
<g>
	<rect x="519.5" y="176" class="st0" width="11" height="6"/>
	<path d="M530,176.5v5h-10v-5H530 M531,175.5h-12v7h12V175.5L531,175.5z"/>
</g>
<g>
	<rect x="500.5" y="176" class="st0" width="11" height="6"/>
	<path d="M511,176.5v5h-10v-5H511 M512,175.5h-12v7h12V175.5L512,175.5z"/>
</g>
<g>
	<rect x="161.5" y="271" class="st0" width="11" height="6"/>
	<path d="M172,271.5v5h-10v-5H172 M173,270.5h-12v7h12V270.5L173,270.5z"/>
</g>
<g>
	<rect x="142.5" y="271" class="st0" width="11" height="6"/>
	<path d="M153,271.5v5h-10v-5H153 M154,270.5h-12v7h12V270.5L154,270.5z"/>
</g>
<g>
	<rect x="200.5" y="271" class="st0" width="11" height="6"/>
	<path d="M211,271.5v5h-10v-5H211 M212,270.5h-12v7h12V270.5L212,270.5z"/>
</g>
<g>
	<rect x="181.5" y="271" class="st0" width="11" height="6"/>
	<path d="M192,271.5v5h-10v-5H192 M193,270.5h-12v7h12V270.5L193,270.5z"/>
</g>
<g>
	<rect x="235.5" y="271" class="st0" width="11" height="6"/>
	<path d="M246,271.5v5h-10v-5H246 M247,270.5h-12v7h12V270.5L247,270.5z"/>
</g>
<g>
	<rect x="216.5" y="271" class="st0" width="11" height="6"/>
	<path d="M227,271.5v5h-10v-5H227 M228,270.5h-12v7h12V270.5L228,270.5z"/>
</g>
<g>
	<rect x="274.5" y="271" class="st0" width="11" height="6"/>
	<path d="M285,271.5v5h-10v-5H285 M286,270.5h-12v7h12V270.5L286,270.5z"/>
</g>
<g>
	<rect x="255.5" y="271" class="st0" width="11" height="6"/>
	<path d="M266,271.5v5h-10v-5H266 M267,270.5h-12v7h12V270.5L267,270.5z"/>
</g>
<g>
	<rect x="310.5" y="271" class="st0" width="11" height="6"/>
	<path d="M321,271.5v5h-10v-5H321 M322,270.5h-12v7h12V270.5L322,270.5z"/>
</g>
<g>
	<rect x="291.5" y="271" class="st0" width="11" height="6"/>
	<path d="M302,271.5v5h-10v-5H302 M303,270.5h-12v7h12V270.5L303,270.5z"/>
</g>
<g>
	<rect x="349.5" y="271" class="st0" width="11" height="6"/>
	<path d="M360,271.5v5h-10v-5H360 M361,270.5h-12v7h12V270.5L361,270.5z"/>
</g>
<g>
	<rect x="330.5" y="271" class="st0" width="11" height="6"/>
	<path d="M341,271.5v5h-10v-5H341 M342,270.5h-12v7h12V270.5L342,270.5z"/>
</g>
<g>
	<rect x="384.5" y="271" class="st0" width="11" height="6"/>
	<path d="M395,271.5v5h-10v-5H395 M396,270.5h-12v7h12V270.5L396,270.5z"/>
</g>
<g>
	<rect x="365.5" y="271" class="st0" width="11" height="6"/>
	<path d="M376,271.5v5h-10v-5H376 M377,270.5h-12v7h12V270.5L377,270.5z"/>
</g>
<g>
	<rect x="423.5" y="271" class="st0" width="11" height="6"/>
	<path d="M434,271.5v5h-10v-5H434 M435,270.5h-12v7h12V270.5L435,270.5z"/>
</g>
<g>
	<rect x="404.5" y="271" class="st0" width="11" height="6"/>
	<path d="M415,271.5v5h-10v-5H415 M416,270.5h-12v7h12V270.5L416,270.5z"/>
</g>
<g>
	<rect x="444.5" y="271" class="st0" width="11" height="6"/>
	<path d="M455,271.5v5h-10v-5H455 M456,270.5h-12v7h12V270.5L456,270.5z"/>
</g>
<g>
	<rect x="479.5" y="271" class="st0" width="11" height="6"/>
	<path d="M490,271.5v5h-10v-5H490 M491,270.5h-12v7h12V270.5L491,270.5z"/>
</g>
<g>
	<rect x="460.5" y="271" class="st0" width="11" height="6"/>
	<path d="M471,271.5v5h-10v-5H471 M472,270.5h-12v7h12V270.5L472,270.5z"/>
</g>
<g>
	<rect x="518.5" y="271" class="st0" width="11" height="6"/>
	<path d="M529,271.5v5h-10v-5H529 M530,270.5h-12v7h12V270.5L530,270.5z"/>
</g>
<g>
	<rect x="499.5" y="271" class="st0" width="11" height="6"/>
	<path d="M510,271.5v5h-10v-5H510 M511,270.5h-12v7h12V270.5L511,270.5z"/>
</g>
<path class="st4" d="M264.4,163.5L264.4,163.5c0,31.2-25.3,56.5-56.5,56.5h0c-31.2,0-56.5-25.3-56.5-56.5v0
	c0-31.2,25.3-56.5,56.5-56.5h0C239.2,107,264.4,132.3,264.4,163.5z"/>
<path class="st5" d="M257.5,162v3c0,26.5-21.5,48-48,48h-3c-26.5,0-48-21.5-48-48v-3c0-26.5,21.5-48,48-48h3
	C236,114,257.5,135.5,257.5,162z"/>
<ellipse transform="matrix(0.9894 -0.1454 0.1454 0.9894 -22.5695 28.2589)" class="st6" cx="182" cy="168.5" rx="16.5" ry="12.5"/>
<circle class="st7" cx="208.5" cy="164" r="6"/>
<ellipse transform="matrix(0.5858 -0.8105 0.8105 0.5858 -46.9497 261.1365)" class="st6" cx="232" cy="176.5" rx="12.5" ry="16.5"/>
<ellipse transform="matrix(0.9181 -0.3963 0.3963 0.9181 -39.3987 88.3012)" class="st6" cx="194" cy="139.5" rx="12.5" ry="16.5"/>
<ellipse transform="matrix(0.33 -0.944 0.944 0.33 -44.0946 320.8728)" class="st6" cx="204" cy="191.5" rx="16.5" ry="12.5"/>
<ellipse transform="matrix(0.7398 -0.6729 0.6729 0.7398 -38.0042 188.733)" class="st6" cx="225" cy="143.5" rx="16.5" ry="12.5"/>
<path class="st4" d="M496.4,163.5L496.4,163.5c0,31.2-25.3,56.5-56.5,56.5h0c-31.2,0-56.5-25.3-56.5-56.5v0
	c0-31.2,25.3-56.5,56.5-56.5h0C471.2,107,496.4,132.3,496.4,163.5z"/>
<path class="st5" d="M489.5,162v3c0,26.5-21.5,48-48,48h-3c-26.5,0-48-21.5-48-48v-3c0-26.5,21.5-48,48-48h3
	C468,114,489.5,135.5,489.5,162z"/>
<ellipse transform="matrix(0.9894 -0.1454 0.1454 0.9894 -20.1031 61.9978)" class="st6" cx="414" cy="168.5" rx="16.5" ry="12.5"/>
<circle class="st7" cx="440.5" cy="164" r="6"/>
<ellipse transform="matrix(0.5858 -0.8105 0.8105 0.5858 49.1478 449.1644)" class="st6" cx="464" cy="176.5" rx="12.5" ry="16.5"/>
<ellipse transform="matrix(0.9181 -0.3963 0.3963 0.9181 -20.404 180.24)" class="st6" cx="426" cy="139.5" rx="12.5" ry="16.5"/>
<ellipse transform="matrix(0.33 -0.944 0.944 0.33 111.3417 539.8751)" class="st6" cx="436" cy="191.5" rx="16.5" ry="12.5"/>
<ellipse transform="matrix(0.7398 -0.6729 0.6729 0.7398 22.3671 344.8342)" class="st6" cx="457" cy="143.5" rx="16.5" ry="12.5"/>
<line class="st8" x1="202" y1="110.5" x2="452" y2="109.5"/>
<g>
	<polygon class="st0" points="568,828.5 544.8,828.5 327.8,633.7 345.2,628.5 	"/>
</g>
<g>
	<polygon class="st0" points="108,828.5 131.2,828.5 348.2,633.7 330.8,628.5 	"/>
</g>
<g>
	<rect x="329.2" y="433" class="st0" width="17.6" height="381"/>
</g>
<g>
	<rect x="324" y="355.5" class="st0" width="28" height="199"/>
</g>
<g>
	<polygon points="641.5,215.4 641.5,119 668.5,114.1 668.5,219.9 	"/>
	<path d="M668,114.7v104.6l-26-4.4v-95.6L668,114.7 M669,113.5l-28,5.1v97.2l28,4.7V113.5L669,113.5z"/>
</g>
<g>
	<path d="M38.8,118.3c-1.1-0.5-1.7-1.8-1.2-2.9l22-52.2c0.3-0.8,1.1-1.3,2-1.3c0.3,0,0.6,0.1,0.8,0.2l2.9,1.2l-23.7,56.2L38.8,118.3
		z"/>
	<path d="M61.6,62.3L61.6,62.3c0.2,0,0.4,0,0.6,0.1l2.5,1l-23.3,55.3l-2.4-1c-0.9-0.4-1.3-1.4-0.9-2.2l22-52.2
		C60.4,62.7,60.9,62.3,61.6,62.3 M61.6,61.3c-1,0-2,0.6-2.4,1.6l-22,52.2c-0.6,1.4,0.1,3,1.4,3.6l3.3,1.4L66,63l-3.4-1.4
		C62.3,61.4,62,61.3,61.6,61.3L61.6,61.3z"/>
</g>
</svg>
